<svg width="22px" height="22px" viewBox="196 2 22 22" version="1.1" xmlns="http://www.w3.org/2000/svg" xmlns:xlink="http://www.w3.org/1999/xlink">
    <!-- Generator: Sketch 41.2 (35397) - http://www.bohemiancoding.com/sketch -->
    <desc>Created with Sketch.</desc>
    <defs></defs>
    <path d="M215.367994,11.5148588 L211.425798,15.4557683 C209.25002,17.6328329 205.720354,17.6328329 203.544209,15.4557683 C203.201429,15.1139536 202.933271,14.7288089 202.697782,14.3316256 L204.529494,12.5000517 C204.616567,12.4122431 204.724088,12.3619289 204.82683,12.3026547 C204.953465,12.7353107 205.174526,13.1449002 205.514778,13.4851987 C206.601381,14.5726741 208.369499,14.5711578 209.455458,13.4851987 L213.396414,9.54438101 C214.483843,8.45704341 214.483843,6.68933868 213.396414,5.60282816 C212.310409,4.51631765 210.54275,4.51631765 209.455458,5.60282816 L208.054059,7.00574363 C206.916821,6.56293293 205.69159,6.44387902 204.498846,6.61866909 L207.485118,3.63248825 C209.662183,1.45583725 213.19093,1.45583725 215.367994,3.63248825 C217.544002,5.80904736 217.544002,9.33834561 215.367994,11.5148588 L215.367994,11.5148588 Z M204.946573,17.995049 L203.544163,19.3979645 C202.457652,20.4839236 200.689442,20.4839236 199.602748,19.3979645 C198.516145,18.310489 198.516145,16.5427843 199.602748,15.4557683 L203.544163,11.5148588 C204.631546,10.4276131 206.398562,10.4276131 207.485072,11.5148588 C207.824544,11.854422 208.045834,12.2639197 208.173664,12.6960243 C208.277004,12.6359689 208.383192,12.587171 208.470219,12.5000057 L210.301793,10.6691671 C210.067821,10.2704215 209.798284,9.88665526 209.455366,9.54447291 C207.279772,7.3678219 203.749785,7.3678219 201.573134,9.54447291 L197.632316,13.4854284 C195.455895,15.6627227 195.455895,19.1910101 197.632316,21.3681206 C199.808967,23.5440823 203.338127,23.5440823 205.514732,21.3681206 L208.501786,18.3812965 C207.308398,18.5570974 206.082846,18.4370326 204.946573,17.995049 L204.946573,17.995049 Z" id="Shape" stroke="none" fill="#666666" fill-rule="evenodd"></path>
</svg>