<svg width="40px" height="40px" viewBox="41 30 40 40" version="1.1" xmlns="http://www.w3.org/2000/svg" xmlns:xlink="http://www.w3.org/1999/xlink">
    <!-- Generator: Sketch 41.2 (35397) - http://www.bohemiancoding.com/sketch -->
    <desc>Created with Sketch.</desc>
    <defs></defs>
    <g id="Group-6" stroke="none" stroke-width="1" fill="none" fill-rule="evenodd" transform="translate(41.000000, 30.000000)">
        <path d="M27.8145455,20.1181818 C27.8145455,18.0254545 27.0715152,16.270303 25.5187879,14.7848485 C24.0339394,13.2321212 22.2781818,12.4890909 20.1854545,12.4890909 C18.0927273,12.4890909 16.3375758,13.2321212 14.7848485,14.7848485 C13.2993939,16.270303 12.5569697,18.0254545 12.5569697,20.1181818 C12.5569697,22.2109091 13.2993939,23.9660606 14.7848485,25.5187879 C16.3375758,27.0042424 18.0927273,27.7466667 20.1854545,27.7466667 C22.2781818,27.7466667 24.0339394,27.0042424 25.5187879,25.5187879 C27.0715152,23.9660606 27.8145455,22.2109091 27.8145455,20.1181818 L27.8145455,20.1181818 Z M23.5612121,33.62 L22.4812121,39.7636364 L17.2824242,39.7636364 L16.2024242,33.62 L12.7593939,32.2024242 L7.62848485,35.8478788 L3.9830303,32.1351515 L7.56121212,27.0042424 L6.14363636,23.5612121 L0,22.5484848 L0,17.2824242 L6.14363636,16.2024242 L7.56121212,12.7593939 L3.9830303,7.69636364 L7.62848485,3.9830303 L12.7593939,7.56121212 L16.2024242,6.14363636 L17.2824242,0 L22.4812121,0 L23.5612121,6.14363636 L27.0042424,7.56121212 L32.0672727,3.9830303 L35.7806061,7.69636364 L32.2024242,12.7593939 L33.62,16.2024242 L39.7636364,17.2824242 L39.7636364,22.4812121 L33.62,23.5612121 L32.2024242,27.0042424 L35.7806061,32.1351515 L32.0672727,35.7806061 L27.0042424,32.2024242 L23.5612121,33.62 Z" id="settings_flat" fill="#FFFFFF"></path>
    </g>
</svg>