<svg width="20px" height="20px" viewBox="0 0 20 20" version="1.1" xmlns="http://www.w3.org/2000/svg" xmlns:xlink="http://www.w3.org/1999/xlink">
    <!-- Generator: Sketch 41.2 (35397) - http://www.bohemiancoding.com/sketch -->
    <desc>Created with Sketch.</desc>
    <defs></defs>
    <g id="Layer_2" stroke="none" stroke-width="1" fill="none" fill-rule="evenodd">
        <path d="M9.98313659,0 C4.4856661,0 0,4.49320072 0,9.99990537 C0,15.50661 4.4856661,19.9998107 9.98313659,19.9998107 C15.5143339,20.0335942 20,15.5403935 20,9.99990537 C20,4.49320072 15.5143339,0 9.98313659,0 L9.98313659,0 M9.98313659,2.49997634 C13.6256324,2.49997634 16.762226,5.13508654 17.3693086,8.7499172 C15.7166948,8.68235027 14.0978078,8.34451563 12.5463744,7.8039802 C11.8381113,7.22966131 10.9274874,6.89182667 10.0168634,6.85804321 C9.07251265,6.89182667 8.19561551,7.22966131 7.48735245,7.8039802 C5.93591906,8.34451563 4.28330523,8.6485668 2.66441821,8.7499172 C3.23777403,5.13508654 6.34064081,2.49997634 9.98313659,2.49997634 M2.59696459,11.2498935 L6.23946037,11.2498935 C7.41989882,11.2498935 7.75716695,12.4998817 7.75716695,12.4998817 L8.73524452,17.398484 C5.59865093,16.8579486 3.13659359,14.3917557 2.59696459,11.2498935 M8.12816189,9.99990537 C8.12816189,8.95261798 8.97133221,8.10803138 10.0168634,8.10803138 C11.0623946,8.10803138 11.9055649,8.95261798 11.9055649,9.99990537 C11.9055649,11.0471928 11.0623946,11.8917794 10.0168634,11.8917794 C8.97133221,11.8917794 8.12816189,11.0471928 8.12816189,9.99990537 M11.2647555,17.398484 L12.2428331,12.4998817 C12.2428331,12.4998817 12.5801012,11.2498935 13.7268128,11.2498935 L17.3693086,11.2498935 C16.8634064,14.3917557 14.4013491,16.8579486 11.2647555,17.398484" id="Shape" fill="#FFFFFF"></path>
    </g>
</svg>