<svg width="22px" height="19px" viewBox="131 3 22 19" version="1.1" xmlns="http://www.w3.org/2000/svg" xmlns:xlink="http://www.w3.org/1999/xlink">
    <!-- Generator: Sketch 41.2 (35397) - http://www.bohemiancoding.com/sketch -->
    <desc>Created with Sketch.</desc>
    <defs></defs>
    <path d="M150.08843,5.96180107 C151.005386,5.37728848 151.708978,4.45045717 152.039184,3.34637783 C151.180649,3.88894623 150.231943,4.28132737 149.219735,4.4937544 C148.412001,3.57368828 147.257551,3 145.979909,3 C143.528767,3 141.542452,5.11750511 141.542452,7.72886923 C141.542452,8.09960176 141.579283,8.46086301 141.655484,8.80588781 C137.96734,8.6083442 134.697034,6.72762081 132.506246,3.86459154 C132.123969,4.56546544 131.905526,5.37728848 131.905526,6.24323306 C131.905526,7.88311561 132.689129,9.33086671 133.88041,10.1805748 C133.152687,10.1562201 132.468145,9.94108703 131.868695,9.58929704 L131.868695,9.64747769 C131.868695,11.9395248 133.397801,13.851368 135.431107,14.2843403 C135.05772,14.3952895 134.666553,14.450764 134.260146,14.450764 C133.974391,14.450764 133.694987,14.4223502 133.425742,14.3668757 C133.989632,16.244893 135.62923,17.6141678 137.572364,17.6506999 C136.052147,18.9198499 134.138224,19.6748453 132.059198,19.6748453 C131.701052,19.6748453 131.346716,19.6545498 131,19.6098995 C132.964724,20.9507605 135.297754,21.7341698 137.804778,21.7341698 C145.971019,21.7341698 150.433876,14.5278872 150.433876,8.27820283 C150.433876,8.07254099 150.431336,7.86823219 150.422446,7.66662947 C151.289871,6.99958153 152.044264,6.16610987 152.637364,5.21762995 C151.84106,5.59377463 150.985066,5.84814585 150.08843,5.96180107 Z" id="Shape" stroke="none" fill="#666666" fill-rule="evenodd"></path>
</svg>